<svg xmlns:xlink="http://www.w3.org/1999/xlink" viewBox="0 0 131 60" xmlns="http://www.w3.org/2000/svg" width="131"  height="60" ><path d="M64.238 0h1.054v41h-1.054V0ZM45.44 24.873h-7.91l3.97-10.359 3.94 10.359Zm7.072 7.32L43.33 8.28h-.558L33.59 32.192h1.148l2.42-6.326h8.685l2.42 6.326h4.25Zm24.568 0h1.303l6.886-10.142 6.7 10.141h4.621l-8.81-13.398 6.95-9.986h-1.303l-6.297 9.025-5.925-9.025h-4.622l8.065 12.282-7.568 11.102ZM40.2 52.018l5.971 7.799h.384l.012-8.622h-.432v6.118l-4.711-6.118h-1.655v8.622h.432v-7.799Zm9.494-.823h1.534v8.622h-1.534v-8.622Zm56.154.823 5.97 7.799h.384l.012-8.622h-.431v6.118l-4.712-6.118h-1.654v8.622h.431v-7.799ZM11.98 55.186v-3.614h.767c1.319 0 1.895.79 1.895 1.807 0 1.018-.576 1.807-1.895 1.807h-.767Zm3.01 4.631h1.737l-2.59-4.357c1.224-.24 2.111-.915 2.111-2.081 0-1.464-1.39-2.184-3.07-2.184h-2.733v8.622h1.535v-4.254h.563l2.446 4.254Zm115.6-.366h-4.064v-3.957h2.77v-.366h-2.77v-3.567h4.064v-.367h-5.598v8.623h5.598v-.366Zm-64.597 0h-4.026v-3.957h2.757v-.366h-2.757v-3.567h4.026v-.367h-5.56v8.623h5.56v-.366Zm22.016-8.256h-1.534v8.622h1.534v-4.243h3.729v4.243h1.534v-8.622h-1.534v4.014h-3.729v-4.014Zm-68.645 0v8.622h.432v-7.799l3.081 7.593h.42l2.961-7.593v7.8h1.535v-8.623h-1.63L23.68 57.54l-2.601-6.346h-1.715Zm57.621 4.311c0 2.481 1.642 4.494 3.944 4.494 1.39 0 2.338-.743 2.841-1.464l-.335-.217c-.468.63-1.27 1.315-2.374 1.315-1.87 0-2.41-2.241-2.41-4.128s.54-4.128 2.41-4.128c1.103 0 1.906.686 2.374 1.315l.335-.217a3.416 3.416 0 0 0-2.84-1.464c-2.303 0-3.945 2.013-3.945 4.494m39.735 0c0-1.887.54-4.128 2.434-4.128 1.103 0 1.918.686 2.385 1.315l.336-.217a3.44 3.44 0 0 0-2.854-1.464c-2.313 0-3.968 2.013-3.968 4.494S116.732 60 119.058 60c2.074 0 3.117-2.001 3.117-2.001v-1.613h-2.77v.39h1.259v1.669c0 .491-.54 1.189-1.51 1.189-1.894 0-2.434-2.241-2.434-4.128M3.648 53.299l1.522 3.82H2.113l1.535-3.82Zm2.613 6.518h1.643L4.354 51H4.14L.59 59.817h.444l.935-2.333h3.357l.935 2.333Zm26.94-6.518 1.523 3.82h-3.057l1.535-3.82Zm2.614 6.518h1.643L33.908 51h-.215l-3.549 8.817h.444l.935-2.333h3.357l.935 2.333Zm63.008-6.518 1.522 3.82h-3.057l1.535-3.82Zm2.613 6.518h1.643L99.53 51h-.216l-3.549 8.817h.444l.935-2.333h3.357l.935 2.333Zm-33.361 0h.503l2.662-3.74 2.59 3.74h1.786l-3.405-4.94 2.686-3.682h-.504l-2.434 3.328-2.29-3.328h-1.786L71 55.723l-2.925 4.094Z"></path></svg>