<svg xmlns="http://www.w3.org/2000/svg" viewBox="0 0 1448 1448"><g fill="none" stroke="gray" stroke-width="2"><path d="M1361.82 635.18c-34.17-13.27-60.5-38.4-71.98-73.7a.68.59 80.1 0 0-.59-.48H161.5a.7.61-79.5 0 0-.6.48c-3.91 11.38-11.45 28.93-20.87 36.71q-16.71 13.82-33.53 27.54c-6.21 5.07-12.9 7.68-20.28 10.15a.69.64-10.1 0 0-.47.62v175a.78.66 10.9 0 0 .53.66q54.93 19.48 74.68 74.23a.86.41 73.9 0 0 .54.61H1289a.87.55-76.2 0 0 .62-.59q19.11-53.3 72.15-73.41a.83.76 80.1 0 0 .48-.75V635.5a.31.23 11.5 0 0-.22-.24l-.21-.08" vector-effect="non-scaling-stroke"/><path d="M189.34 729.31c6.3 54.72 101.91 59.21 138.95 50.26 18.77-4.54 38.2-18.2 42.27-38.16a.56.37-81.7 0 0-.31-.66H360a.69.53-83 0 0-.55.56c-3.14 14.85-18.81 24.74-32.36 29-27.05 8.51-66.71 4.05-79.23-25.58-5.18-12.24-5.53-28.36-1.85-41.22 5.44-19.01 21.62-29.29 40.75-31.73 30.41-3.9 61.25 7.32 72.36 38.25a.93.4 73.6 0 0 .56.68l10.82.06a.52.5 90 0 0 .5-.52v-44a.46.36 81.6 0 0-.49-.47l-22.33 8.88a1.2 1.04-40.3 0 1-.9-.01c-34.84-16.98-77.09-16.09-113.3-3.69-26.21 8.97-48.05 28.7-44.64 58.35m230.74-47.98c-34.48 18.5-38.6 62.88-2.3 82.44 33.74 18.19 70.25 21.4 108.03 18.56 28.12-2.12 67.17-10.55 84.53-35.25 14.88-21.18 5.8-49.68-15.18-62.52-19.88-12.18-42.62-18.27-66.06-21.2-36.61-4.58-76.16.33-109.02 17.97m332.67 89.17H735a.65.56 0 0 0-.65.56l-.03 8.75a.74.41 0 0 0 .74.41q45.52.07 91.04.01c3.15-.01 8.16-.48 12.41.1a1.1 1.09 4.1 0 0 1.26-1.08l-.03-8.25a.5.49 90 0 0-.49-.5h-21a1.19.51 56.7 0 1-.75-.5l-91.09-107.91a.63.56 46.4 0 0-.89-.07q-40.32 44.43-80.61 88.64c-6.99 7.67-15.83 18.21-26.84 19.7q-4.97.67-10 .38a.54.51 1.6 0 0-.57.51v8.25a.81.59 0 0 0 .81.59l66.19-.11a.52.46-1.1 0 0 .52-.48l-.33-8.5a.51.49 88.2 0 0-.5-.49c-6.87.19-29.53 1.4-22.18-11.12q3.89-6.63 9.21-12.23a1.26.49-52.7 0 1 .78-.48l71.75.25a1.26.5 56.5 0 1 .77.54l18.49 22.52q.42.51-.26.51m83.15-38.94c5.73 45.79 73.29 54.37 107.94 53.46 15.63-.42 30.02-1.76 43.34-7.82 14.28-6.49 26.61-18.48 30.09-34.2a.4.35-82.8 0 0-.33-.49l-10.44-.01a.74.64-83.8 0 0-.66.61c-2.19 12.61-14.88 22.36-26.46 26.89-34.01 13.3-83.37 6.06-88.79-38.26-5.87-47.97 33.79-66.82 74.88-56.06 19.28 5.05 33.4 17.14 40.19 36.25a.83.52 76.2 0 0 .59.57h10.26a1.24 1.21 89.8 0 0 1.21-1.25l-.23-43.44a.23.16 83.3 0 0-.21-.24l-22.3 8.87a1.98 1.73 44.6 0 1-1.51-.09c-31.49-15.25-68.92-15.76-102.24-6.93-29.21 7.74-59.73 27.02-55.33 62.14m225.77 38.95a.33.33 0 0 0 .33-.33v-96.12a.33.33 89.9 0 0-.33-.33l-19.37.06a.33.33 1 0 1-.34-.35l.36-8.11a.33.33-88.8 0 1 .33-.32l90.27-.03a.33.33 89.7 0 1 .33.33v8.36a.33.33 0 0 1-.33.33h-19.84a.33.33 90 0 0-.33.33v40.09a.33.33 0 0 0 .33.33h70.59a.33.33 0 0 0 .33-.33v-40.35a.33.33-.1 0 0-.33-.33l-18.35.02a.33.33.1 0 1-.33-.33l.01-8.09a.33.33 0 0 1 .33-.33l90.13-.02a.33.33-88.7 0 1 .33.34l-.36 8.07a.33.33 1.8 0 1-.32.31l-20.53.14a.33.33 89.8 0 0-.33.33v95.99a.33.33 90 0 0 .33.33h21.34a.33.33 90 0 1 .33.33v9.09a.33.33 0 0 1-.33.33h-91.16a.33.33.1 0 1-.33-.33l.03-9.09a.33.33.1 0 1 .33-.33h19.13a.33.33 0 0 0 .33-.33v-44.84a.33.33 90 0 0-.33-.33h-70.84a.33.33 90 0 0-.33.33v44.84a.33.33 90 0 0 .33.33h19.27a.33.33-1.2 0 1 .33.32l.38 9.09a.33.33-1.2 0 1-.33.34h-90.57a.33.33-1 0 1-.33-.32l-.32-9.1a.33.33 89 0 1 .33-.34l19.83.02" vector-effect="non-scaling-stroke"/><path d="M452.79 743.49c6.23 23.52 27.49 29.79 48.92 31.06q11.4.67 21.31-1.27c33-6.45 41.66-40.72 34.16-69.52q-6.19-23.76-29.71-29.45c-16.77-4.06-39.58-4.2-54.94 3.96-22.11 11.73-25.55 43.24-19.74 65.22m217.08-5.99a.31.31-67.7 0 1-.23-.52l30.09-32.97a.31.31-43.9 0 1 .47.02l27.06 32.96a.31.31 70.6 0 1-.24.51h-57.15" vector-effect="non-scaling-stroke"/></g><path d="M1383.01 619.59a1.81 1.79-81.2 0 1 1.24 1.72v205.94a.83.74 81 0 1-.49.76q-14 4.99-20.19 7.78-46.69 21.02-56.7 72.06a1.15 1.12 5.5 0 1-1.12.9H144.56a1.06.85 82.1 0 1-.87-.82c-1.41-6.16-2.89-12.81-4.96-18.45-9.14-24.92-30.1-45.6-53.98-54.75q-3.65-1.4-20.27-6.13a.67.61 8.8 0 1-.48-.6V620a.68.59-9.9 0 1 .48-.59q5.6-1.69 11.17-3.3c30.23-8.75 53.94-30.46 64.09-60.37q.9-2.65 4.2-16.01a.63.56-82.1 0 1 .56-.48h1161.44a1.11 1.03 84.3 0 1 1.03.91c7.99 43.51 36.05 66.7 76.04 79.43Zm-21.19 15.59c-34.17-13.27-60.5-38.4-71.98-73.7a.68.59 80.1 0 0-.59-.48H161.5a.7.61-79.5 0 0-.6.48c-3.91 11.38-11.45 28.93-20.87 36.71q-16.71 13.82-33.53 27.54c-6.21 5.07-12.9 7.68-20.28 10.15a.69.64-10.1 0 0-.47.62v175a.78.66 10.9 0 0 .53.66q54.93 19.48 74.68 74.23a.86.41 73.9 0 0 .54.61H1289a.87.55-76.2 0 0 .62-.59q19.11-53.3 72.15-73.41a.83.76 80.1 0 0 .48-.75V635.5a.31.23 11.5 0 0-.22-.24l-.21-.08Z"/><path fill="#fff" d="m1361.82 635.18.21.08a.31.23 11.5 0 1 .22.24v176.75a.83.76 80.1 0 1-.48.75q-53.04 20.11-72.15 73.41a.87.55-76.2 0 1-.62.59H161.5a.86.41 73.9 0 1-.54-.61q-19.75-54.75-74.68-74.23a.78.66 10.9 0 1-.53-.66v-175a.69.64-10.1 0 1 .47-.62c7.38-2.47 14.07-5.08 20.28-10.15q16.82-13.72 33.53-27.54c9.42-7.78 16.96-25.33 20.87-36.71a.7.61-79.5 0 1 .6-.48h1127.75a.68.59 80.1 0 1 .59.48c11.48 35.3 37.81 60.43 71.98 73.7ZM189.34 729.31c6.3 54.72 101.91 59.21 138.95 50.26 18.77-4.54 38.2-18.2 42.27-38.16a.56.37-81.7 0 0-.31-.66H360a.69.53-83 0 0-.55.56c-3.14 14.85-18.81 24.74-32.36 29-27.05 8.51-66.71 4.05-79.23-25.58-5.18-12.24-5.53-28.36-1.85-41.22 5.44-19.01 21.62-29.29 40.75-31.73 30.41-3.9 61.25 7.32 72.36 38.25a.93.4 73.6 0 0 .56.68l10.82.06a.52.5 90 0 0 .5-.52v-44a.46.36 81.6 0 0-.49-.47l-22.33 8.88a1.2 1.04-40.3 0 1-.9-.01c-34.84-16.98-77.09-16.09-113.3-3.69-26.21 8.97-48.05 28.7-44.64 58.35Zm230.74-47.98c-34.48 18.5-38.6 62.88-2.3 82.44 33.74 18.19 70.25 21.4 108.03 18.56 28.12-2.12 67.17-10.55 84.53-35.25 14.88-21.18 5.8-49.68-15.18-62.52-19.88-12.18-42.62-18.27-66.06-21.2-36.61-4.58-76.16.33-109.02 17.97Zm332.67 89.17H735a.65.56 0 0 0-.65.56l-.03 8.75a.74.41 0 0 0 .74.41q45.52.07 91.04.01c3.15-.01 8.16-.48 12.41.1a1.1 1.09 4.1 0 0 1.26-1.08l-.03-8.25a.5.49 90 0 0-.49-.5h-21a1.19.51 56.7 0 1-.75-.5l-91.09-107.91a.63.56 46.4 0 0-.89-.07q-40.32 44.43-80.61 88.64c-6.99 7.67-15.83 18.21-26.84 19.7q-4.97.67-10 .38a.54.51 1.6 0 0-.57.51v8.25a.81.59 0 0 0 .81.59l66.19-.11a.52.46-1.1 0 0 .52-.48l-.33-8.5a.51.49 88.2 0 0-.5-.49c-6.87.19-29.53 1.4-22.18-11.12q3.89-6.63 9.21-12.23a1.26.49-52.7 0 1 .78-.48l71.75.25a1.26.5 56.5 0 1 .77.54l18.49 22.52q.42.51-.26.51Zm83.15-38.94c5.73 45.79 73.29 54.37 107.94 53.46 15.63-.42 30.02-1.76 43.34-7.82 14.28-6.49 26.61-18.48 30.09-34.2a.4.35-82.8 0 0-.33-.49l-10.44-.01a.74.64-83.8 0 0-.66.61c-2.19 12.61-14.88 22.36-26.46 26.89-34.01 13.3-83.37 6.06-88.79-38.26-5.87-47.97 33.79-66.82 74.88-56.06 19.28 5.05 33.4 17.14 40.19 36.25a.83.52 76.2 0 0 .59.57h10.26a1.24 1.21 89.8 0 0 1.21-1.25l-.23-43.44a.23.16 83.3 0 0-.21-.24l-22.3 8.87a1.98 1.73 44.6 0 1-1.51-.09c-31.49-15.25-68.92-15.76-102.24-6.93-29.21 7.74-59.73 27.02-55.33 62.14Zm225.77 38.95a.33.33 0 0 0 .33-.33v-96.12a.33.33 89.9 0 0-.33-.33l-19.37.06a.33.33 1 0 1-.34-.35l.36-8.11a.33.33-88.8 0 1 .33-.32l90.27-.03a.33.33 89.7 0 1 .33.33v8.36a.33.33 0 0 1-.33.33h-19.84a.33.33 90 0 0-.33.33v40.09a.33.33 0 0 0 .33.33h70.59a.33.33 0 0 0 .33-.33v-40.35a.33.33-.1 0 0-.33-.33l-18.35.02a.33.33.1 0 1-.33-.33l.01-8.09a.33.33 0 0 1 .33-.33l90.13-.02a.33.33-88.7 0 1 .33.34l-.36 8.07a.33.33 1.8 0 1-.32.31l-20.53.14a.33.33 89.8 0 0-.33.33v95.99a.33.33 90 0 0 .33.33h21.34a.33.33 90 0 1 .33.33v9.09a.33.33 0 0 1-.33.33h-91.16a.33.33.1 0 1-.33-.33l.03-9.09a.33.33.1 0 1 .33-.33h19.13a.33.33 0 0 0 .33-.33v-44.84a.33.33 90 0 0-.33-.33h-70.84a.33.33 90 0 0-.33.33v44.84a.33.33 90 0 0 .33.33h19.27a.33.33-1.2 0 1 .33.32l.38 9.09a.33.33-1.2 0 1-.33.34h-90.57a.33.33-1 0 1-.33-.32l-.32-9.1a.33.33 89 0 1 .33-.34l19.83.02Z"/><path d="M328.29 779.57c-37.04 8.95-132.65 4.46-138.95-50.26-3.41-29.65 18.43-49.38 44.64-58.35 36.21-12.4 78.46-13.29 113.3 3.69a1.2 1.04-40.3 0 0 .9.01l22.33-8.88a.46.36 81.6 0 1 .49.47v44a.52.5-90 0 1-.5.52l-10.82-.06a.93.4 73.6 0 1-.56-.68c-11.11-30.93-41.95-42.15-72.36-38.25-19.13 2.44-35.31 12.72-40.75 31.73-3.68 12.86-3.33 28.98 1.85 41.22 12.52 29.63 52.18 34.09 79.23 25.58 13.55-4.26 29.22-14.15 32.36-29a.69.53-83 0 1 .55-.56h10.25a.56.37-81.7 0 1 .31.66c-4.07 19.96-23.5 33.62-42.27 38.16Zm89.49-15.8c-36.3-19.56-32.18-63.94 2.3-82.44 32.86-17.64 72.41-22.55 109.02-17.97 23.44 2.93 46.18 9.02 66.06 21.2 20.98 12.84 30.06 41.34 15.18 62.52-17.36 24.7-56.41 33.13-84.53 35.25-37.78 2.84-74.29-.37-108.03-18.56Zm35.01-20.28c6.23 23.52 27.49 29.79 48.92 31.06q11.4.67 21.31-1.27c33-6.45 41.66-40.72 34.16-69.52q-6.19-23.76-29.71-29.45c-16.77-4.06-39.58-4.2-54.94 3.96-22.11 11.73-25.55 43.24-19.74 65.22Zm299.96 27.01q.68 0 .26-.51l-18.49-22.52a1.26.5 56.5 0 0-.77-.54l-71.75-.25a1.26.49-52.7 0 0-.78.48q-5.32 5.6-9.21 12.23c-7.35 12.52 15.31 11.31 22.18 11.12a.51.49 88.2 0 1 .5.49l.33 8.5a.52.46-1.1 0 1-.52.48l-66.19.11a.81.59 0 0 1-.81-.59v-8.25a.54.51 1.6 0 1 .57-.51q5.03.29 10-.38c11.01-1.49 19.85-12.03 26.84-19.7q40.29-44.21 80.61-88.64a.63.56 46.4 0 1 .89.07L817.5 770a1.19.51 56.7 0 0 .75.5h21a.5.49 90 0 1 .49.5l.03 8.25a1.1 1.09 4.1 0 1-1.26 1.08c-4.25-.58-9.26-.11-12.41-.1q-45.52.06-91.04-.01a.74.41 0 0 1-.74-.41l.03-8.75a.65.56 0 0 1 .65-.56h17.75Zm-82.88-33a.31.31-67.7 0 1-.23-.52l30.09-32.97a.31.31-43.9 0 1 .47.02l27.06 32.96a.31.31 70.6 0 1-.24.51h-57.15Zm273.97 47.52c-34.65.91-102.21-7.67-107.94-53.46-4.4-35.12 26.12-54.4 55.33-62.14 33.32-8.83 70.75-8.32 102.24 6.93a1.98 1.73 44.6 0 0 1.51.09l22.3-8.87a.23.16 83.3 0 1 .21.24l.23 43.44a1.24 1.21 89.8 0 1-1.21 1.25h-10.26a.83.52 76.2 0 1-.59-.57c-6.79-19.11-20.91-31.2-40.19-36.25-41.09-10.76-80.75 8.09-74.88 56.06 5.42 44.32 54.78 51.56 88.79 38.26 11.58-4.53 24.27-14.28 26.46-26.89a.74.64-83.8 0 1 .66-.61l10.44.01a.4.35-82.8 0 1 .33.49c-3.48 15.72-15.81 27.71-30.09 34.2-13.32 6.06-27.71 7.4-43.34 7.82Zm117.83-111.29-19.37.06a.33.33 1 0 1-.34-.35l.36-8.11a.33.33-88.8 0 1 .33-.32l90.27-.03a.33.33 89.9 0 1 .33.33v8.36a.33.33 0 0 1-.33.33h-19.84a.33.33 0 0 0-.33.33v40.09a.33.33 0 0 0 .33.33h70.59a.33.33 0 0 0 .33-.33v-40.35a.33.33-.1 0 0-.33-.33l-18.35.02a.33.33.1 0 1-.33-.33l.01-8.09a.33.33 90 0 1 .33-.33l90.13-.02a.33.33-88.8 0 1 .33.34l-.36 8.07a.33.33-88.9 0 1-.32.31l-20.53.14a.33.33 89.8 0 0-.33.33v95.99a.33.33 90 0 0 .33.33h21.34a.33.33 90 0 1 .33.33v9.09a.33.33 0 0 1-.33.33h-91.16a.33.33.1 0 1-.33-.33l.03-9.09a.33.33.1 0 1 .33-.33h19.13a.33.33 0 0 0 .33-.33v-44.84a.33.33 90 0 0-.33-.33h-70.84a.33.33 90 0 0-.33.33v44.84a.33.33 90 0 0 .33.33h19.27a.33.33-1.2 0 1 .33.32l.38 9.09a.33.33-1.1 0 1-.33.34h-90.57a.33.33-1 0 1-.33-.32l-.32-9.1a.33.33 89 0 1 .33-.34l19.83.02a.33.33 0 0 0 .33-.33v-96.12a.33.33 89.9 0 0-.33-.33Z"/><path fill="#fff" d="M501.71 774.55c-21.43-1.27-42.69-7.54-48.92-31.06-5.81-21.98-2.37-53.49 19.74-65.22 15.36-8.16 38.17-8.02 54.94-3.96q23.52 5.69 29.71 29.45c7.5 28.8-1.16 63.07-34.16 69.52q-9.91 1.94-21.31 1.27Zm198.49-70.52 27.06 32.96a.31.31 70.6 0 1-.24.51h-57.15a.31.31-68.9 0 1-.23-.52l30.09-32.97a.31.31 46.4 0 1 .47.02Z"/></svg>