<?xml version="1.0" encoding="UTF-8"?>
<svg xmlns="http://www.w3.org/2000/svg" xmlns:xlink="http://www.w3.org/1999/xlink" width="411.02pt" height="70.87pt" viewBox="0 0 411.02 70.87" version="1.1">
<defs>
<clipPath id="clip1">
  <path d="M 322 0 L 411.019531 0 L 411.019531 70.871094 L 322 70.871094 Z M 322 0 "/>
</clipPath>
</defs>
<g id="surface1">
<path style=" stroke:none;fill-rule:nonzero;fill:rgb(13.699341%,12.199402%,12.5%);fill-opacity:1;" d="M 41.667969 31.929688 L 14.40625 31.894531 L 14.40625 12.261719 L 40.886719 12.261719 C 40.886719 12.261719 51.597656 11.292969 51.597656 22.390625 C 51.597656 32.808594 41.667969 31.929688 41.667969 31.929688 Z M 65.808594 22 C 65.808594 2.527344 48.09375 1.359375 48.09375 1.359375 L 0 1.359375 L 0 67.171875 L 14.601563 67.558594 L 14.601563 42.054688 C 14.601563 42.054688 25.894531 42.054688 46.925781 42.054688 C 67.953125 42.054688 65.808594 22 65.808594 22 "/>
<path style=" stroke:none;fill-rule:nonzero;fill:rgb(13.699341%,12.199402%,12.5%);fill-opacity:1;" d="M 105.335938 67.558594 L 88.980469 67.558594 L 88.980469 1.554688 L 105.335938 1.554688 L 105.335938 67.558594 "/>
<path style=" stroke:none;fill-rule:nonzero;fill:rgb(13.699341%,12.199402%,12.5%);fill-opacity:1;" d="M 191.394531 67.558594 L 206.582031 67.558594 L 206.582031 1.554688 L 191.394531 1.554688 L 191.488281 50.621094 L 150.703125 1.554688 L 132.203125 1.554688 L 132.203125 67.558594 L 147.390625 67.558594 L 147.390625 18.882813 L 189.449219 67.558594 L 191.394531 67.558594 "/>
<path style=" stroke:none;fill-rule:nonzero;fill:rgb(13.699341%,12.199402%,12.5%);fill-opacity:1;" d="M 313.875 67.558594 L 266.757813 32.902344 L 308.425781 1.75 L 287.007813 1.75 L 248.054688 31.984375 L 248.054688 1.554688 L 232.671875 1.554688 L 232.671875 67.558594 L 248.054688 67.558594 L 248.054688 34.917969 L 292.261719 67.558594 L 313.875 67.558594 "/>
<g clip-path="url(#clip1)" clip-rule="nonzero">
<path style=" stroke:none;fill-rule:nonzero;fill:rgb(13.699341%,12.199402%,12.5%);fill-opacity:1;" d="M 370.660156 59.960938 C 366.785156 59.960938 362.671875 59.960938 362.671875 59.960938 C 362.671875 59.960938 338.941406 59.234375 338.941406 34.78125 C 338.941406 34.78125 340.152344 10.566406 361.21875 10.566406 L 368.964844 10.566406 C 368.964844 10.566406 394.148438 9.839844 394.148438 33.570313 C 394.148438 57.296875 374.535156 59.960938 370.660156 59.960938 Z M 373.835938 -0.00390625 L 362.152344 -0.00390625 C 320.289063 -0.00390625 322.820313 36.210938 322.820313 36.210938 L 322.820313 37.574219 C 322.820313 70.871094 360.984375 70.871094 360.984375 70.871094 L 373.835938 70.871094 C 408.6875 70.871094 411.023438 37.769531 411.023438 37.769531 L 411.023438 30.957031 C 411.023438 0.972656 373.835938 -0.00390625 373.835938 -0.00390625 "/>
</g>
</g>
</svg>
