<?xml version="1.0" encoding="UTF-8" standalone="no"?>


<svg
   version="1.1"
   id="layer"
   x="0px"
   y="0px"
   viewBox="0 0 620 136"
   xml:space="preserve"
   sodipodi:docname="Tory Burch logo.svg"
   width="620"
   height="136"
   inkscape:version="1.1.1 (3bf5ae0d25, 2021-09-20)"
   xmlns:inkscape="http://www.inkscape.org/namespaces/inkscape"
   xmlns:sodipodi="http://sodipodi.sourceforge.net/DTD/sodipodi-0.dtd"
   xmlns="http://www.w3.org/2000/svg"
   xmlns:svg="http://www.w3.org/2000/svg"><defs
   id="defs37" /><sodipodi:namedview
   id="namedview35"
   pagecolor="#ffffff"
   bordercolor="#999999"
   borderopacity="1"
   inkscape:pageshadow="0"
   inkscape:pageopacity="0"
   inkscape:pagecheckerboard="0"
   showgrid="false"
   fit-margin-top="10"
   fit-margin-right="10"
   fit-margin-bottom="10"
   fit-margin-left="10"
   inkscape:zoom="1.1027607"
   inkscape:cx="315.11822"
   inkscape:cy="70.278164"
   inkscape:window-width="1920"
   inkscape:window-height="1001"
   inkscape:window-x="-9"
   inkscape:window-y="-9"
   inkscape:window-maximized="1"
   inkscape:current-layer="layer" />
<style
   type="text/css"
   id="style2">
	.st0{fill:#002144;}
</style>
<g
   id="g32"
   transform="translate(-10.5,-253.7)"
   style="fill:#000000">
	<g
   id="g12"
   style="fill:#000000">
		<polygon
   class="st0"
   points="35.7,308.8 35.7,342.6 46,342.6 46,308.8 61.6,308.8 61.6,301.5 20.5,301.5 20.5,308.8 "
   id="polygon4"
   style="fill:#000000" />
		<path
   class="st0"
   d="m 96.4,335 c -2.7,1 -5,1 -6,1 -5,0 -8.3,-1.7 -9.9,-3 -1,-1 -1.7,-2 -2,-2.3 -1,-1.3 -1.3,-2 -1.7,-2.7 -1.3,-2.3 -1.3,-5 -1.3,-6 0,-2.7 0.7,-9.9 8.3,-13.3 2.7,-1.3 5,-1.3 6,-1.3 4.3,-0.3 8.6,1.3 11.6,4.6 3.3,3.6 3.6,8.3 3.6,9.9 0,2.5 -0.6,10.4 -8.6,13.1 m 14.9,-26.9 c -1,-1.3 -2,-2.3 -3.3,-3 -1.7,-1.3 -2.7,-1.7 -3.3,-2 -4.6,-2.3 -10.9,-3 -15.9,-3 -5.3,0.3 -11.6,1.7 -15.9,5 -3,2.3 -7.6,7.3 -7.6,16.6 0,6.3 2.3,10.6 3.6,12.6 3,4.3 9.3,9.3 21.5,9.3 8,0 13.3,-2.3 16.2,-4.3 6.3,-4.3 7.6,-10.3 8.3,-12.9 0.3,-2.3 0.7,-4.3 0.7,-5 0,-7 -2.6,-11.6 -4.3,-13.3"
   id="path6"
   style="fill:#000000" />
		<path
   class="st0"
   d="m 152.8,318.4 c -1,0.3 -2.7,0.3 -2.7,0.3 h -16.2 v -9.9 h 15.9 c 2,0 4.3,0.3 5.6,2 1,1.3 1,2.7 1,3 0,3.3 -2.3,4.3 -3.6,4.6 m 3.3,6.6 c 4.3,-1 7.6,-2 9.6,-6.3 1.3,-2.3 1.3,-4.3 1.3,-5.3 0,-5.3 -3,-9.9 -8.3,-11.6 -1.7,-0.7 -3.3,-0.7 -6.6,-1 h -28.2 v 41.1 h 10.3 v -16.2 h 11.9 l 10.9,16.2 h 12 z"
   id="path8"
   style="fill:#000000" />
		<polygon
   class="st0"
   points="183.9,301.1 171.3,301.1 190.6,326.7 190.6,341.9 200.8,341.9 200.8,326.7 220.4,301.1 207.8,301.1 195.9,318.7 "
   id="polygon10"
   style="fill:#000000" />
	</g>
	<g
   id="g24"
   style="fill:#000000">
		<path
   class="st0"
   d="m 374.2,334.6 h 15.2 c 1.3,0 2.3,0 3.6,-0.3 1.7,-0.7 3,-1.7 3,-5 0,-0.7 -0.3,-2.3 -1.3,-3.6 -1.3,-1.3 -2.7,-1.3 -4.3,-1.7 h -16.6 z m 0,-17.2 h 14.6 c 2,0 4,0 5,-2 0.7,-1.3 0.7,-2.3 0.7,-2.7 0,-0.3 0,-1.3 -0.3,-2 -1,-2.7 -4,-2.3 -4.6,-2.3 h -15.2 v 9 z m 16.2,-16.3 c 3,0 6.3,0.3 9.3,1.7 2,1.3 4.6,3.3 4.6,8.6 0,1.7 -0.3,5.6 -5,8 -0.7,0.3 -1,0.7 -2,0.7 2,0.7 2.7,0.7 3.6,1.3 5,2.7 5.3,7.3 5.3,9.3 0,1.7 -0.3,6.3 -4.3,9.3 -3,2.3 -6.6,2.3 -10.3,2.3 h -27.8 v -40.8 l 26.6,-0.4 z"
   id="path14"
   style="fill:#000000" />
		<path
   class="st0"
   d="m 424.6,301.1 v 24.2 c 0.3,3 0.7,5.6 3.3,7.6 3.3,2.3 8,2.3 9,2.3 1,0 5,0 7.6,-1.7 2,-1.3 3,-2.7 3.3,-3.3 0.7,-1 0.7,-1.7 0.7,-3.6 v -25.5 h 10.3 V 325 c 0,4 0,7 -2,10.3 -0.3,0.7 -1.3,1.7 -2.3,3 -4.3,4 -11.9,5.3 -17.2,5.3 -1.3,0 -4.6,0 -8,-1 -8.3,-1.7 -11.6,-6 -12.9,-9.3 -1,-2 -1.3,-4 -1.3,-8.3 v -23.9 h 9.5 z"
   id="path16"
   style="fill:#000000" />
		<path
   class="st0"
   d="m 479,318.4 h 16.2 c 0,0 1.7,0 2.7,-0.3 1.3,-0.3 3.6,-1.3 3.6,-4.6 0,-0.7 0,-2 -1,-3 -1.3,-2 -3.6,-2 -5.6,-2 H 479 Z m 17.9,-17.3 c 3.6,0 5,0.3 6.6,1 5.3,1.7 8.3,6 8.3,11.6 0,1.3 0,3 -1.3,5.3 -1.7,4.3 -5.3,5.3 -9.6,6 l 12.3,16.9 h -11.9 l -10.9,-16.6 h -11.9 v 16.2 H 468 v -40.4 z"
   id="path18"
   style="fill:#000000" />
		<path
   class="st0"
   d="m 555.9,314.1 c -0.7,-1 -1.7,-2.7 -4.3,-4.3 -1.3,-1 -4.3,-2.3 -8.3,-2.3 -1,0 -3.6,0 -6.3,1.3 -5.3,2.3 -8.3,7.3 -8.3,12.9 0,3 1,6 2.7,8.3 0.3,0.7 1.3,1.7 2.7,2.7 1.7,1.3 4.6,3.3 9.6,3.3 6,0 9.3,-2.3 10.9,-4.3 0.7,-1 1.3,-1.7 2,-3.3 l 10.9,-0.3 c -0.7,2 -1,3 -1.7,4 -0.7,1.3 -1.7,3 -4.3,5.3 -3.3,3 -8.6,6 -18.9,6 -2.3,0 -10.6,0 -16.6,-5 -7.3,-5.3 -7.6,-13.9 -7.6,-16.9 0,-4.3 1,-8.6 3.3,-11.9 1,-1.3 1.7,-2 2.7,-3 1.7,-1.3 2,-1.7 3,-2.3 2.7,-1.7 8.3,-4.3 16.2,-4.3 2.3,0 10.3,0.3 16.6,4.6 3.6,2.3 5.3,5 6,6.6 0.3,0.7 0.7,1.3 1,1.7 z"
   id="path20"
   style="fill:#000000" />
		<polygon
   class="st0"
   points="585.7,317.1 585.7,301.1 575.4,301.1 575.4,341.9 585.7,341.9 585.7,324.4 610.6,324.4 610.6,341.9 620.5,341.9 620.5,301.1 610.6,301.1 610.6,317.1 "
   id="polygon22"
   style="fill:#000000" />
	</g>
	<path
   class="st0"
   d="m 231.3,321.7 c 0,31.8 25.9,58 58,58 31.8,0 58,-25.9 58,-58 0,-31.8 -25.9,-58 -58,-58 -32.1,0.3 -58,26.2 -58,58 m 7.7,0 c 0,-27.5 22.5,-50.1 50.1,-50.1 27.5,0 50.1,22.5 50.1,50.1 0,27.5 -22.5,50.1 -50.1,50.1 -27.6,0 -50.1,-22.3 -50.1,-50.1"
   id="path26"
   style="fill:#000000" />
	<path
   class="st0"
   d="m 297.3,323.4 h 14.3 c 4.3,0 6.6,1 8.3,4.6 1.3,-3.3 3.6,-4.6 7.3,-4.6 h 1.7 V 342 h -18.2 c 1.7,-1.7 2.7,-3.3 2.7,-5.6 0,-4 -3.3,-7 -7.6,-7 -5,0 -8.3,3 -8.3,7 0,2.7 1.7,4.6 4.3,5.6 -2.7,1.3 -4.3,3.6 -4.3,6.3 0,4.6 3.3,7 9.6,7 1,0 1.7,0 2.7,-0.3 v 6.3 h -11.9 c -4.3,0 -6.6,-1 -8.3,-4.6 -1.7,3.6 -4,4.6 -8.3,4.6 H 269.4 V 355 c 1,0 1.7,0.3 2.7,0.3 6.3,0 9.6,-2.3 9.6,-7 0,-3 -1.7,-5 -4.3,-6.3 2.7,-1 4.3,-3 4.3,-5.6 0,-4 -3,-7 -8,-7 -4.6,0 -7.6,3 -7.6,7 0,2.3 1,4.3 2.7,5.6 h -18.2 v -18.6 h 1.7 c 4,0 6,1.3 7.3,4.6 1.7,-3.6 4,-4.6 8.3,-4.6 h 14.3 c 4,0 6.6,0.7 8.3,4.6 0.2,-3.6 2.5,-4.6 6.8,-4.6"
   id="path28"
   style="fill:#000000" />
	<path
   class="st0"
   d="m 280.7,319.7 h -14.3 c -4.3,0 -6.6,-1 -8.3,-4.6 -1.3,3.3 -3.6,4.6 -7.3,4.6 h -1.7 v -18.6 h 18.2 c -1.7,1.7 -2.7,3.3 -2.7,5.6 0,4 3.3,7 7.6,7 5,0 8.3,-3 8.3,-7 0,-2.7 -1.7,-4.6 -4.3,-5.6 2.7,-1.3 4.3,-3.6 4.3,-6.3 0,-4.6 -3.3,-7 -9.6,-7 -1,0 -1.7,0 -2.7,0.3 v -6.6 h 11.9 c 4.3,0 6.6,1 8.3,4.6 1.7,-3.6 4,-4.6 8.3,-4.6 h 11.9 v 6.3 c -1,0 -1.7,-0.3 -2.7,-0.3 -6.3,0 -9.6,2.3 -9.6,7 0,3 1.7,5 4.3,6.3 -2.7,1 -4.3,3 -4.3,5.6 0,4 3,7 8,7 4.6,0 7.6,-3 7.6,-7 0,-2.3 -1,-4.3 -2.7,-5.6 h 18.2 v 18.6 h -1.7 c -4,0 -6,-1.3 -7.3,-4.6 -1.7,3.6 -4,4.6 -8.3,4.6 h -14.3 c -4,0 -6.6,-0.7 -8.3,-4.6 -0.1,4.2 -2.5,4.9 -6.8,4.9"
   id="path30"
   style="fill:#000000" />
</g>
<path
   style="opacity:0;fill:#000000;fill-rule:evenodd;stroke:#00cb00;stroke-width:0.147811"
   d="M 70.480913,88.04187 C 60.352614,84.740984 55.62895,78.381556 55.572265,67.970485 55.491708,53.174859 68.787795,44.332261 86.180931,47.61411 c 12.005589,2.265292 18.160119,9.071174 18.034929,19.943609 -0.10293,8.938193 -3.90053,15.262439 -11.528624,19.198906 -4.816765,2.485686 -16.455952,3.159332 -22.206323,1.285245 z m 18.145219,-7.529678 c 4.304464,-2.528101 6.309297,-7.006747 5.905913,-13.193362 -0.362988,-5.567067 -2.018865,-8.626211 -6.466812,-11.947083 -3.566325,-2.662645 -12.977531,-2.647128 -16.587053,0.02735 -6.965155,5.160834 -8.691022,13.488507 -4.335643,20.920399 1.267895,2.163499 2.390078,3.939778 2.493742,3.947287 0.103662,0.0075 1.820745,0.625039 3.815738,1.372288 4.416852,1.654385 11.310232,1.142461 15.174115,-1.126879 z"
   id="path928" /><path
   style="opacity:0;fill:#000000;fill-rule:evenodd;stroke:#00cb00;stroke-width:0.147811"
   d="m 180.9096,80.290433 v -7.217217 l -7.0861,-9.332157 c -3.89736,-5.132687 -8.23049,-10.862408 -9.62919,-12.732714 l -2.54309,-3.400556 5.77523,0.01503 5.77522,0.01503 5.8943,9.053022 5.89429,9.053023 2.05533,-2.49364 c 1.13042,-1.371501 3.98689,-5.446852 6.3477,-9.056335 l 4.29238,-6.562697 5.68816,-0.01171 5.68816,-0.01171 -9.54212,12.500883 -9.54212,12.500882 v 7.449048 7.449048 h -4.53408 -4.53407 z"
   id="path967" /></svg>
