<?xml version="1.0" encoding="utf-8"?>
<!-- Generator: Adobe Illustrator 19.0.0, SVG Export Plug-In . SVG Version: 6.00 Build 0)  -->
<svg version="1.1" id="Layer_1" xmlns="http://www.w3.org/2000/svg" xmlns:xlink="http://www.w3.org/1999/xlink" x="0px" y="0px"
	 viewBox="0 0 500 500" style="enable-background:new 0 0 500 500;" xml:space="preserve">
<style type="text/css">
	.st0{fill-rule:evenodd;clip-rule:evenodd;fill:#231F20;}
</style>
<g id="XMLID_1_">
	<path id="XMLID_14_" class="st0" d="M86.2,223.2l0.1,1.2h-6l11.5,41.3c3-9.9,8.6-27.1,11.3-37.2c0.4-1.5-0.3-2.9-1.4-3.5
		c-0.9-0.5-2.8-0.3-4-0.3l-0.2-1.6h13.8v1.2c-1.9,0.1-5.2,0.4-5.8,2.3c-5.9,15.9-12.2,37.3-16.4,50.9h-0.7l-15.8-53.1h-5.1l-0.1-1.2
		H86.2z M130.2,259.5l-13.4-0.1c-1.4,4.1-2.6,9-3.5,13c-0.3,1.6-0.1,2.1,0.4,2.8c0.5,0.7,3.5,0.2,5.4,0.4l-0.1,1.2h-12.7l-0.1-1.2
		c1.2-0.1,4.2,0.3,4.6-0.9c4.4-12.2,11-38.1,15.3-52.3h0.7l15.2,53.2h4.8v1.2h-18.1v-1.2h6.1L130.2,259.5z M123.6,235.3l-6.5,23.2
		H130L123.6,235.3z M156,224.8h-6.3v-1.6h19.1v1.6h-6.4v50.9c3.2,0,6.5-0.2,9.6-0.1c12.1,0.3,14.4-4.7,14.4-16l0.9-0.1l-0.1,17.2
		h-37.6v-1h6.4V224.8z M197.2,224.9h-5.5v-1.6h33.8l0.9,13.4l-0.9-0.1c-0.5-4.4-0.7-5.6-2.6-8.1c-1.9-2.5-5.2-3.3-8.9-3.3l-10.1-0.1
		l-0.1,24.4c1.8,0,3.6,0,5.4-0.2c1.8-0.1,4.5-1,5.4-2.4c0.9-1.4,1.1-3.8,1.3-7.2h0.9l0.1,19.9h-1.3l0-0.4c0-2.4,0.3-4.4-1.2-6.6
		c-0.9-1.4-3.7-2.3-6.1-2.3l-4.5,0.1l0.1,25.3c6.1,0,16.6,1,21.2-3.6c1.9-1.9,2.4-6.1,2.4-10.5l1.2,0.1l-0.1,14.9h-36.8l-0.1-1.1
		h5.5V224.9z M270.5,225c-0.8-0.7-4-0.5-5.5-0.5l0.1-1.4l13.2,0.1v1.1c-4.4,0.1-5.9-0.5-6,4c-0.4,12.4-0.1,39.4-0.1,49.2l-1.2,0.1
		l-30.4-50.9c-0.1,7.5-0.3,34.2-0.3,44.8c0,5.3,2.8,4,6.7,3.9v1.4h-14v-1.1c6.3-0.2,6.3,0.2,6.4-7.6c0.1-13.9,0.2-28.6,0.2-43.6
		c-3.1,0-4.7,0.1-6.3,0.1v-1.3l13.5,0.1l24.2,40.3c0-4,0.1-27.4,0-35.9C271.1,226.2,270.7,225.2,270.5,225z M381,225.1
		c-0.8-0.7-4-0.5-5.5-0.5l0.1-1.4l13.2,0.1v1.1c-4.4,0.1-5.9-0.5-6,3.9c-0.4,12.4-0.1,39.4-0.1,49.2l-1.2,0.1l-30.4-50.9
		c-0.1,7.6-0.3,34.2-0.3,44.8c0,5.3,2.8,4,6.7,3.9v1.4h-14v-1.1c6.3-0.2,6.3,0.2,6.4-7.6c0.1-13.9,0.2-28.6,0.2-43.6
		c-3.1,0-4.7,0-6.3,0v-1.3l13.5,0.1l24.2,40.2c0-4,0.1-27.4,0-35.9C381.6,226.2,381.3,225.3,381,225.1z M297,224.6
		c-5.7-0.1-10.9,0.3-12.9,2.8c-2,2.4-1.8,5.9-2.3,11.3l-0.9,0.1l0.1-15.7h38.7l0.2,15.8h-1c-0.5-6.2-0.4-9.6-2.5-11.7
		c-2.1-2-8.1-2.8-12.8-2.8l-0.1,51l6.3,0.1v1.2h-19.5v-1.2h6.5L297,224.6z M329.1,224.8h-5.6v-1.6h17.7v1.6h-5.7v50.7h5.4v1.3h-17.8
		v-1.3h5.9V224.8z M412.3,223.4c-0.5,0-1.1,0-1.7,0.2c-0.6,0.1-1.2,0.3-1.8,0.5c-2.3,0.9-4.5,3.2-6.4,7c-1.9,3.8-2.9,10.1-2.9,18.9
		c0,8.7,0.9,15,2.8,18.8c1.9,3.8,4,6.1,6.3,7c0.6,0.3,1.2,0.5,1.8,0.6c0.6,0.1,1.2,0.2,1.8,0.2c0.6,0,1.2,0,1.8-0.2
		c0.6-0.1,1.2-0.3,1.9-0.6c2.3-1,4.4-3.4,6.3-7.1c1.9-3.8,2.9-10,2.9-18.7c0-8-0.8-13.8-2.4-17.5c-1.6-3.7-3.4-6.2-5.3-7.5
		c-0.9-0.6-1.8-1-2.6-1.2C413.8,223.4,413,223.4,412.3,223.4z M392.3,250c0-7.8,1.8-14.1,5.4-18.9c3.6-4.8,7.6-7.6,12-8.4
		c0.5-0.1,0.9-0.1,1.4-0.2c0.5-0.1,0.9-0.1,1.3-0.1c5.2,0,9.9,2.6,14,7.7c4.1,5.2,6.2,11.8,6.2,19.8c0,7.6-1.6,13.6-4.9,18.2
		c-3.3,4.6-6.9,7.5-10.8,8.7c-0.7,0.3-1.4,0.5-2.2,0.6c-0.7,0.1-1.4,0.2-2.2,0.2c-1,0-2.2-0.1-3.4-0.5c-1.2-0.3-2.5-0.8-3.8-1.4
		c-3.2-1.8-6.2-4.8-8.9-9C393.6,262.5,392.3,257,392.3,250z"/>
</g>
</svg>
