<?xml version="1.0" encoding="utf-8"?>
<!-- Generator: Adobe Illustrator 14.0.0, SVG Export Plug-In . SVG Version: 6.00 Build 43363)  -->
<!DOCTYPE svg PUBLIC "-//W3C//DTD SVG 1.1//EN" "http://www.w3.org/Graphics/SVG/1.1/DTD/svg11.dtd">
<svg version="1.1" id="Layer_1" xmlns="http://www.w3.org/2000/svg" xmlns:xlink="http://www.w3.org/1999/xlink" x="0px" y="0px"
	 width="612px" height="792px" viewBox="0 0 612 792" enable-background="new 0 0 612 792" xml:space="preserve">
<g>
	<polygon fill-rule="evenodd" clip-rule="evenodd" fill="#FFFFFF" points="209,300 401.756,300 401.756,492.756 209,492.756 
		209,300 	"/>
	<polygon points="240.784,363.059 243.484,363.059 231.567,399.532 231.474,399.532 218.765,363.059 224.677,363.059 
		233.056,386.552 240.784,363.059 	"/>
	<polygon points="247.067,398.546 247.067,363.059 264.896,363.059 264.896,365.358 252.746,365.358 252.746,379.05 264.199,379.05 
		264.199,381.35 252.746,381.35 252.746,396.246 265.083,396.246 265.083,398.546 247.067,398.546 	"/>
	<path d="M269.18,398.546v-35.487h13.034c5.493,0,8.565,4.764,8.565,10.46c0,5.422-3.351,7.777-7.867,8.434l8.007,16.594h-6.238
		l-8.239-18.182h0.373c5.027,0,8.286-2.3,8.286-7.612c0-3.943-1.629-7.941-7.168-7.941h-3.072v33.735H269.18L269.18,398.546z"/>
	<path d="M297.124,392.193c1.676,2.958,3.45,4.546,6.605,4.546c2.761,0,5.718-2.465,5.718-6.134
		c0-10.296-14.984-5.422-14.984-18.127c0-5.696,4.288-10.405,10.252-10.405c3.943,0,7.936,2.41,9.612,6.353l-2.07,1.479
		c-1.232-2.848-3.155-5.039-6.556-5.039c-3.302,0-5.224,2.793-5.224,6.189c0,8.324,14.984,4.819,14.984,17.634
		c0,6.517-5.127,10.844-10.499,10.844c-4.337,0-7.837-1.424-10.055-5.531L297.124,392.193L297.124,392.193z"/>
	<path d="M334.912,386.991h-9.833l4.891-13.035L334.912,386.991L334.912,386.991z M331.687,362.072h-0.104l-13.734,36.474h2.965
		l3.382-9.255h11.603l3.59,9.255h6.503L331.687,362.072L331.687,362.072z"/>
	<path d="M369.864,370.835c-2.059-3.341-4.425-6.462-8.193-6.462c-6.923,0-10.427,6.352-10.427,16.593
		c0,7.996,3.241,15.773,9.77,15.773c4.206,0,7.799-3.122,9.421-7.777l1.883,1.15c-2.584,6.682-6.922,9.42-12.354,9.42
		c-8.018,0-14.459-8.379-14.459-18.292c0-11.337,6.66-19.168,14.984-19.168c4.469,0,8.5,2.957,10.953,7.338L369.864,370.835
		L369.864,370.835z"/>
	<polygon points="375.236,398.546 375.236,363.059 393.065,363.059 393.065,365.358 380.915,365.358 380.915,379.05 392.368,379.05 
		392.368,381.35 380.915,381.35 380.915,396.246 393.252,396.246 393.252,398.546 375.236,398.546 	"/>
	<path d="M219.658,423.26v1.291c0,1.966,0.078,3.844,2.234,3.844s2.388-1.878,2.388-3.844v-16.402h2.131v16.578
		c0,4.636-1.849,5.869-4.545,5.869c-1.489,0-2.928-0.499-3.672-2.084c-0.822-1.761-0.693-4.196-0.668-5.252H219.658L219.658,423.26z
		"/>
	<polygon points="230.262,430.155 230.262,408.148 239.892,408.148 239.892,410.35 232.394,410.35 232.394,417.626 239.429,417.626 
		239.429,419.827 232.394,419.827 232.394,427.954 239.943,427.954 239.943,430.155 230.262,430.155 	"/>
	<path d="M250.856,421.617h-5.084l2.542-11.708h0.051L250.856,421.617L250.856,421.617z M241.483,430.155h2.363l1.412-6.338h6.085
		l1.516,6.338h2.362l-5.418-22.007h-2.824L241.483,430.155L241.483,430.155z"/>
	<path d="M267.059,408.148h2.132v22.007h-3.493l-5.393-17.605c-0.308-0.998-0.539-1.995-0.719-3.316h-0.051
		c0.026,1.116,0.051,2.261,0.051,3.375v17.547h-2.131v-22.007h3.467l5.469,18.017c0.231,0.674,0.411,1.379,0.667,2.406h0.051
		c-0.025-0.793-0.051-1.644-0.051-2.465V408.148L267.059,408.148z"/>
	<path d="M281.439,413.93c0.154-2.289-0.924-4.021-3.056-4.021c-3.107,0-3.44,2.229-3.44,3.933c0,1.525,0.59,2.464,1.823,2.992
		c1.028,0.44,2.029,0.88,3.056,1.32c3.646,1.555,4.313,3.022,4.313,5.927c0,4.167-2.285,6.602-5.983,6.602
		c-1.9,0-4.16-0.615-5.264-3.491c-0.411-1.085-0.385-2.846-0.411-4.02h2.131c-0.103,3.257,0.437,5.311,3.646,5.311
		c2.157,0,3.672-1.262,3.672-3.844c0-3.345-1.181-3.374-3.133-4.225c-1.053-0.471-2.747-1.086-3.775-1.702
		c-1.823-1.057-2.285-2.817-2.285-4.988c0-3.639,2.234-6.016,5.367-6.016c3.518,0,5.675,2.084,5.47,6.222H281.439L281.439,413.93z"
		/>
	<path d="M301.622,414.75c-0.052-2.611-0.796-4.841-3.467-4.841c-3.697,0-3.749,6.016-3.749,8.92
		c-0.103,2.993-0.154,9.653,3.749,9.653c2.543,0,3.082-2.376,3.339-4.782c0.051-0.499,0.077-0.998,0.128-1.497h2.131
		c-0.052,0.44-0.052,0.91-0.103,1.35c-0.129,1.79-0.206,3.14-1.13,4.666c-1.001,1.584-2.337,2.464-4.185,2.464
		c-5.932,0-6.138-6.542-6.138-11.795c0-4.958,0.643-11.18,6.111-11.18c3.647,0,5.547,3.11,5.444,7.042H301.622L301.622,414.75z"/>
	<path d="M317.105,418.74c-0.024,6.368-0.59,9.742-4.134,9.742s-4.108-3.374-4.135-9.742c-0.024-4.898,0.797-8.831,4.083-8.831
		C316.311,409.909,317.132,413.842,317.105,418.74L317.105,418.74z M306.629,418.682c0.051,6.104,0.719,12.001,6.343,12.001
		c5.623,0,6.317-5.897,6.342-12.001c0.026-5.047-0.667-10.974-6.291-10.974C307.297,407.708,306.629,413.635,306.629,418.682
		L306.629,418.682z"/>
	<path d="M322.883,408.148h2.132v15.815c-0.025,1.731,0.231,4.519,3.646,4.519s3.672-2.787,3.646-4.519v-15.815h2.132v16.695
		c0,3.933-2.285,5.839-5.777,5.839c-3.493,0-5.778-1.906-5.778-5.839V408.148L322.883,408.148z"/>
	<polygon points="336.878,408.148 348.972,408.148 348.972,410.35 343.99,410.35 343.99,430.155 341.859,430.155 341.859,410.35 
		336.878,410.35 336.878,408.148 	"/>
	<path d="M351.411,408.148h2.131v15.815c-0.024,1.731,0.232,4.519,3.647,4.519c3.414,0,3.671-2.787,3.646-4.519v-15.815h2.131
		v16.695c0,3.933-2.285,5.839-5.777,5.839c-3.493,0-5.778-1.906-5.778-5.839V408.148L351.411,408.148z"/>
	<path d="M369.36,410.35h3.004c1.438,0,4.031,0.088,4.083,3.873c0.052,3.844-2.722,4.02-3.723,4.049h-3.364V410.35L369.36,410.35z
		 M369.36,420.473h3.724c2.516,0,3.286,1.877,3.286,4.078c0,1.468,0.206,4.196,0.668,5.604h2.491v-0.499
		c-0.514,0-0.669-0.969-0.745-1.379c-0.205-1.644-0.334-3.258-0.411-4.899c-0.308-2.936-0.924-3.845-3.415-4.108v-0.059
		c2.234-0.353,3.621-2.201,3.698-4.783c0.128-5.076-2.439-6.279-6.472-6.279h-4.955v22.007h2.131V420.473L369.36,420.473z"/>
	<polygon points="382.609,430.155 382.609,408.148 392.239,408.148 392.239,410.35 384.741,410.35 384.741,417.626 391.776,417.626 
		391.776,419.827 384.741,419.827 384.741,427.954 392.291,427.954 392.291,430.155 382.609,430.155 	"/>
</g>
</svg>
