<svg width="60" height="65" viewBox="0 0 60 65" fill="none" xmlns="http://www.w3.org/2000/svg">
<path id="logo" d="M0 0C1.40497 0.371715 2.71828 1.042 3.93991 2.01084L3.9766 2.04001C5.48081 3.24466 6.32042 5.11959 6.32042 7.07176V57.8434C6.32042 59.7919 5.48146 61.6662 3.9779 62.8652C3.96653 62.8766 3.95376 62.8866 3.93991 62.8947C2.71633 63.8618 1.40302 64.5635 0 65H19.971C18.5641 64.5627 17.2654 63.8605 16.0749 62.8937C15.4396 62.3783 14.9265 61.723 14.5738 60.9768C14.2211 60.2306 14.0381 59.4128 14.0382 58.5843V46.6684C14.0382 51.7166 15.7932 56.0342 19.3031 59.6212C22.8131 63.2082 27.0122 65.001 31.9005 64.9997C36.8479 64.9997 41.0776 63.2068 44.5897 59.6212C45.2227 58.9768 45.8116 58.2889 46.3523 57.5623V57.6674C46.3523 59.6769 45.4972 61.6085 43.9608 62.8645L43.9251 62.8934C42.7346 63.8604 41.4371 64.5625 40.0326 64.9997H60C58.5955 64.5623 57.2979 63.8602 56.1072 62.8934C56.0949 62.8843 56.0833 62.8745 56.0724 62.8639C54.5367 61.6042 53.6802 59.6716 53.6802 57.6594V7.25375C53.6802 5.23959 54.5367 3.30301 56.0724 2.04167C56.0841 2.03272 56.0958 2.02079 56.1072 2.01184C57.2992 1.0452 58.5968 0.37492 60 0.000994947H40.0323C41.4368 0.372489 42.7343 1.04277 43.9248 2.01184C43.938 2.02105 43.9506 2.03101 43.9627 2.04167C45.4981 3.30135 46.352 5.23396 46.352 7.24778V31.9868H42.9569C41.9125 31.1252 40.7861 30.3727 39.5946 29.7406C36.6634 28.1851 33.5798 27.2807 30.3437 27.0277C32.2768 25.9015 34.1288 24.636 35.8855 23.2407C37.5639 21.9017 38.9383 20.3894 40.0089 18.7039C41.0753 17.0232 41.6095 15.0281 41.6115 12.7184C41.6115 8.29188 39.7642 5.06534 36.0696 3.03881C32.3722 1.01559 27.0742 0.00309423 20.1755 0.00132626L0 0ZM14.0389 0.93415H20.1752C22.8005 0.93415 25.1674 1.23062 27.2758 1.82355C29.3843 2.41648 31.0635 3.47649 32.3135 5.00357C33.5635 6.52977 34.189 8.69652 34.1901 11.5038C34.1901 13.8716 33.7326 15.9758 32.8177 17.8165C31.9028 19.6572 30.7265 21.3716 29.2888 22.9599C27.8555 24.5485 26.2831 26.1381 24.5716 27.7288C23.1294 29.0705 21.7212 30.4895 20.347 31.9859H14.0389V0.93415ZM14.0389 32.92H19.4989C17.9222 34.6964 16.607 36.6976 15.5947 38.8607C14.5573 41.074 14.0387 43.6453 14.0389 46.5746V32.92ZM40.8764 54.8536C39.9615 57.3169 38.5725 59.2803 36.7095 60.7439C34.8466 62.2076 32.4185 62.9404 29.4255 62.9424C27.1065 62.9424 24.8319 62.2562 22.6018 60.8838C20.3724 59.5154 18.5406 57.5986 17.1064 55.1334C15.6722 52.6682 14.9547 49.8465 14.9538 46.6684C14.9538 42.7389 16.0532 39.2781 18.2518 36.286C19.276 35.0882 20.379 33.9632 21.5531 32.9187C21.9086 32.5971 22.2729 32.2888 22.6427 31.9845C24.5797 30.4008 26.6688 29.0213 28.8781 27.8674C32.3337 27.8674 35.259 29.2398 37.654 31.9845C37.9164 32.2789 38.167 32.5915 38.4144 32.9187C38.4261 32.9336 38.4378 32.9518 38.4495 32.9661C40.9843 36.3637 42.2517 40.9311 42.2517 46.6684C42.2517 49.662 41.7933 52.3904 40.8764 54.8536ZM44.0144 32.92H46.352V35.5468C45.6462 34.606 44.8644 33.7273 44.0147 32.92H44.0144Z" fill="black"/>
</svg>
