<svg width="19" height="18" viewBox="0 0 19 18" fill="none" xmlns="http://www.w3.org/2000/svg">
<g id="Group">
<g id="Group_2">
<path id="Vector" d="M4.85723 14.3498C4.66197 14.5451 4.34539 14.5451 4.15012 14.3498C3.95486 14.1546 3.95486 13.838 4.15012 13.6427L13.8652 3.92767C14.0605 3.7324 14.377 3.7324 14.5723 3.92767C14.7676 4.12293 14.7676 4.43951 14.5723 4.63477L4.85723 14.3498Z" stroke="white" stroke-linecap="round" stroke-linejoin="round"/>
<path id="Vector_2" d="M14.4963 3.50367C14.7725 3.50367 14.9963 3.72753 14.9963 4.00367L14.9963 11.7757C14.9963 12.0519 14.7725 12.2757 14.4963 12.2757C14.2202 12.2757 13.9963 12.0519 13.9963 11.7757L13.9963 4.50367L6.72426 4.50367C6.44812 4.50367 6.22426 4.27982 6.22426 4.00367C6.22426 3.72753 6.44812 3.50367 6.72426 3.50367H14.4963Z" stroke="white" stroke-linecap="round" stroke-linejoin="round"/>
</g>
</g>
</svg>
