<svg width="93" height="93" viewBox="0 0 93 93" fill="none" xmlns="http://www.w3.org/2000/svg">
<g id="Group 15">
<rect id="Rectangle 12" width="93" height="93" rx="7" fill="#FF8989"/>
<path id="logo" d="M21 19C22.1942 19.3145 23.3105 19.8817 24.3489 20.7015L24.3801 20.7262C25.6587 21.7455 26.3724 23.332 26.3724 24.9838V67.9444C26.3724 69.5931 25.6592 71.1791 24.3812 72.1936C24.3716 72.2033 24.3607 72.2117 24.3489 72.2186C23.3089 73.0369 22.1926 73.6307 21 74H37.9753C36.7795 73.6299 35.6756 73.0358 34.6637 72.2177C34.1236 71.7816 33.6875 71.2272 33.3877 70.5958C33.088 69.9644 32.9324 69.2724 32.9325 68.5713V58.4886C32.9325 62.7602 34.4242 66.4136 37.4077 69.4487C40.3911 72.4838 43.9604 74.0008 48.1154 73.9997C52.3207 73.9997 55.916 72.4827 58.9012 69.4487C59.4393 68.9035 59.9398 68.3214 60.3995 67.7065V67.7955C60.3995 69.4958 59.6726 71.1303 58.3667 72.1931L58.3363 72.2175C57.3244 73.0358 56.2215 73.6298 55.0277 73.9997H72C70.8061 73.6297 69.7032 73.0356 68.6911 72.2175C68.6807 72.2098 68.6708 72.2015 68.6616 72.1925C67.3562 71.1266 66.6282 69.4913 66.6282 67.7887V25.1378C66.6282 23.4335 67.3562 21.7949 68.6616 20.7276C68.6715 20.72 68.6814 20.7099 68.6911 20.7023C69.7043 19.8844 70.8072 19.3172 72 19.0008H55.0274C56.2213 19.3152 57.3241 19.8823 58.336 20.7023C58.3473 20.7101 58.358 20.7185 58.3683 20.7276C59.6734 21.7934 60.3992 23.4287 60.3992 25.1327V46.0658H57.5134C56.6257 45.3367 55.6682 44.6999 54.6554 44.1652C52.1639 42.8489 49.5428 42.0837 46.7921 41.8696C48.4353 40.9167 50.0095 39.8458 51.5027 38.6652C52.9293 37.5322 54.0976 36.2526 55.0075 34.8264C55.914 33.4043 56.3681 31.716 56.3697 29.7617C56.3697 26.0162 54.7995 23.2861 51.6592 21.5713C48.5164 19.8593 44.0131 19.0026 38.1492 19.0011L21 19ZM32.9331 19.7904H38.1489C40.3804 19.7904 42.3923 20.0413 44.1845 20.543C45.9766 21.0447 47.4039 21.9416 48.4664 23.2338C49.5289 24.5252 50.0606 26.3586 50.0616 28.734C50.0616 30.7375 49.6727 32.518 48.895 34.0755C48.1173 35.633 47.1175 37.0837 45.8955 38.4276C44.6772 39.7718 43.3406 41.1168 41.8859 42.4628C40.66 43.5981 39.463 44.7988 38.2949 46.065H32.9331V19.7904ZM32.9331 46.8554H37.5741C36.2339 48.3585 35.116 50.0518 34.2555 51.8821C33.3737 53.7549 32.9329 55.9306 32.9331 58.4093V46.8554ZM55.7449 65.4146C54.9673 67.4989 53.7866 69.1602 52.2031 70.3987C50.6196 71.6372 48.5558 72.2573 46.0117 72.259C44.0405 72.259 42.1071 71.6783 40.2116 70.5171C38.3165 69.3592 36.7595 67.7373 35.5404 65.6513C34.3214 63.5654 33.7115 61.1778 33.7107 58.4886C33.7107 55.1636 34.6452 52.2353 36.5141 49.7035C37.3846 48.6901 38.3222 47.7381 39.3202 46.8543C39.6224 46.5822 39.932 46.3213 40.2463 46.0638C41.8928 44.7237 43.6685 43.5565 45.5464 42.5801C48.4836 42.5801 50.9702 43.7413 53.0059 46.0638C53.2289 46.3129 53.442 46.5774 53.6522 46.8543C53.6622 46.8669 53.6721 46.8823 53.682 46.8944C55.8367 49.7693 56.914 53.634 56.914 58.4886C56.914 61.0217 56.5243 63.3303 55.7449 65.4146ZM58.4122 46.8554H60.3992V49.078C59.7993 48.282 59.1347 47.5385 58.4125 46.8554H58.4122Z" fill="black"/>
</g>
</svg>
