<!DOCTYPE svg PUBLIC "-//W3C//DTD SVG 1.1//EN" "http://www.w3.org/Graphics/SVG/1.1/DTD/svg11.dtd">
<!-- Uploaded to: SVG Repo, www.svgrepo.com, Transformed by: SVG Repo Mixer Tools -->
<svg fill="#000000" width="64px" height="64px" viewBox="0 0 24 24" xmlns="http://www.w3.org/2000/svg">
<g id="SVGRepo_bgCarrier" stroke-width="0"/>
<g id="SVGRepo_tracerCarrier" stroke-linecap="round" stroke-linejoin="round"/>
<g id="SVGRepo_iconCarrier">
<path d="M20.512,20.965A8.973,8.973,0,0,1,19,15.973V9.293A8.214,8.214,0,0,0,11.246,1,8,8,0,0,0,3,9v3A11.013,11.013,0,0,0,14,23h6a1,1,0,0,0,.832-1.555ZM14,21a9.01,9.01,0,0,1-9-9V9a6,6,0,0,1,6-6q.093,0,.186,0A6.2,6.2,0,0,1,17,9.293v6.68A10.965,10.965,0,0,0,18.215,21ZM9,11a1,1,0,0,1-2,0V9A1,1,0,0,1,9,9Zm6-2v2a1,1,0,0,1-2,0V9a1,1,0,0,1,2,0Zm-2,5a1,1,0,0,1-1,1H10a1,1,0,0,1,0-2h2A1,1,0,0,1,13,14Z"/>
</g>
</svg>